<svg width="72" height="72" viewBox="0 0 72 72" fill="none" xmlns="http://www.w3.org/2000/svg">
<circle cx="36" cy="36" r="36" fill="white"/>
<path d="M25.035 45.5625C26.82 44.3158 28.5908 43.3596 30.3475 42.6938C32.1042 42.0279 33.9883 41.695 36 41.695C38.0117 41.695 39.9029 42.0279 41.6737 42.6938C43.4446 43.3596 45.2225 44.3158 47.0075 45.5625C48.2542 44.0325 49.1396 42.4883 49.6638 40.93C50.1879 39.3717 50.45 37.7283 50.45 36C50.45 31.8917 49.0688 28.4563 46.3063 25.6938C43.5438 22.9313 40.1083 21.55 36 21.55C31.8917 21.55 28.4563 22.9313 25.6938 25.6938C22.9313 28.4563 21.55 31.8917 21.55 36C21.55 37.7283 21.8192 39.3717 22.3575 40.93C22.8958 42.4883 23.7883 44.0325 25.035 45.5625ZM36 37.275C34.3567 37.275 32.9754 36.7154 31.8563 35.5963C30.7371 34.4771 30.1775 33.0958 30.1775 31.4525C30.1775 29.8092 30.7371 28.4279 31.8563 27.3088C32.9754 26.1896 34.3567 25.63 36 25.63C37.6433 25.63 39.0246 26.1896 40.1438 27.3088C41.2629 28.4279 41.8225 29.8092 41.8225 31.4525C41.8225 33.0958 41.2629 34.4771 40.1438 35.5963C39.0246 36.7154 37.6433 37.275 36 37.275ZM36 53C33.6767 53 31.4808 52.5537 29.4125 51.6613C27.3442 50.7688 25.5379 49.5504 23.9938 48.0063C22.4496 46.4621 21.2312 44.6558 20.3387 42.5875C19.4462 40.5192 19 38.3233 19 36C19 33.6483 19.4462 31.4454 20.3387 29.3913C21.2312 27.3371 22.4496 25.5379 23.9938 23.9938C25.5379 22.4496 27.3442 21.2312 29.4125 20.3387C31.4808 19.4462 33.6767 19 36 19C38.3517 19 40.5546 19.4462 42.6087 20.3387C44.6629 21.2312 46.4621 22.4496 48.0063 23.9938C49.5504 25.5379 50.7688 27.3371 51.6613 29.3913C52.5537 31.4454 53 33.6483 53 36C53 38.3233 52.5537 40.5192 51.6613 42.5875C50.7688 44.6558 49.5504 46.4621 48.0063 48.0063C46.4621 49.5504 44.6629 50.7688 42.6087 51.6613C40.5546 52.5537 38.3517 53 36 53ZM36 50.45C37.5583 50.45 39.0813 50.2233 40.5688 49.77C42.0563 49.3167 43.5225 48.5233 44.9675 47.39C43.5225 46.37 42.0492 45.5908 40.5475 45.0525C39.0458 44.5142 37.53 44.245 36 44.245C34.47 44.245 32.9542 44.5142 31.4525 45.0525C29.9508 45.5908 28.4775 46.37 27.0325 47.39C28.4775 48.5233 29.9438 49.3167 31.4313 49.77C32.9188 50.2233 34.4417 50.45 36 50.45ZM36 34.725C36.9633 34.725 37.7496 34.4204 38.3587 33.8112C38.9679 33.2021 39.2725 32.4158 39.2725 31.4525C39.2725 30.4892 38.9679 29.7029 38.3587 29.0938C37.7496 28.4846 36.9633 28.18 36 28.18C35.0367 28.18 34.2504 28.4846 33.6413 29.0938C33.0321 29.7029 32.7275 30.4892 32.7275 31.4525C32.7275 32.4158 33.0321 33.2021 33.6413 33.8112C34.2504 34.4204 35.0367 34.725 36 34.725Z" fill="black" stroke="black" stroke-width="0.5"/>
</svg>
