<svg width="72" height="72" viewBox="0 0 72 72" fill="none" xmlns="http://www.w3.org/2000/svg">
<circle cx="36" cy="36" r="36" fill="white"/>
<path d="M22.3999 42.8V53H49.5999V42.8C49.5999 40.93 48.0699 39.4 46.1999 39.4H25.7999C23.9299 39.4 22.3999 40.93 22.3999 42.8ZM46.1999 46.2H25.7999V42.8H46.1999V46.2ZM35.9999 19C31.3079 19 27.4999 22.808 27.4999 27.5L35.9999 39.4L44.4999 27.5C44.4999 22.808 40.6919 19 35.9999 19ZM35.9999 34.3L30.8999 27.5C30.8999 24.678 33.1779 22.4 35.9999 22.4C38.8219 22.4 41.0999 24.678 41.0999 27.5L35.9999 34.3Z" fill="black"/>
</svg>
