<svg width="72" height="72" viewBox="0 0 72 72" fill="none" xmlns="http://www.w3.org/2000/svg">
<circle cx="36" cy="36" r="36" fill="#EFEFEF"/>
<path d="M22.4004 42.8V53H49.6004V42.8C49.6004 40.93 48.0704 39.4 46.2004 39.4H25.8004C23.9304 39.4 22.4004 40.93 22.4004 42.8ZM46.2004 46.2H25.8004V42.8H46.2004V46.2ZM36.0004 19C31.3084 19 27.5004 22.808 27.5004 27.5L36.0004 39.4L44.5004 27.5C44.5004 22.808 40.6924 19 36.0004 19ZM36.0004 34.3L30.9004 27.5C30.9004 24.678 33.1784 22.4 36.0004 22.4C38.8224 22.4 41.1004 24.678 41.1004 27.5L36.0004 34.3Z" fill="black"/>
</svg>
