<svg width="72" height="72" viewBox="0 0 72 72" fill="none" xmlns="http://www.w3.org/2000/svg">
<circle cx="36" cy="36" r="36" fill="white"/>
<path d="M50.25 32.8333H37.0291C35.7308 29.1442 32.2158 26.5 28.0833 26.5C22.8425 26.5 18.5833 30.7592 18.5833 36C18.5833 41.2408 22.8425 45.5 28.0833 45.5C32.2158 45.5 35.7308 42.8558 37.0291 39.1667H37.5833L40.75 42.3333L43.9166 39.1667L47.0833 42.3333L53.4166 35.9367L50.25 32.8333ZM28.0833 40.75C25.4708 40.75 23.3333 38.6125 23.3333 36C23.3333 33.3875 25.4708 31.25 28.0833 31.25C30.6958 31.25 32.8333 33.3875 32.8333 36C32.8333 38.6125 30.6958 40.75 28.0833 40.75Z" fill="black"/>
</svg>
