<svg width="72" height="72" viewBox="0 0 72 72" fill="none" xmlns="http://www.w3.org/2000/svg">
<circle cx="36" cy="36" r="36" fill="white"/>
<path d="M19.0001 41.0588C19.0001 36.8794 22.0025 33.4335 25.9601 32.6829L23.4184 35.2417L25.8237 37.647L32.6472 30.8065L25.8237 24L23.4184 26.4053L26.1137 29.1006V29.2029C20.1943 29.9023 15.5884 34.9517 15.5884 41.0588C15.5884 47.6606 20.9278 53 27.5295 53H32.6472V49.5882H27.5295C22.8213 49.5882 19.0001 45.767 19.0001 41.0588Z" fill="black"/>
<path d="M36.0591 41.0586V52.9998H51.412V41.0586H36.0591ZM48.0002 49.588H39.4708V44.4704H48.0002V49.588Z" fill="black"/>
<path d="M51.412 25.707H36.0591V37.6482H51.412V25.707Z" fill="black"/>
</svg>
