<svg width="72" height="72" viewBox="0 0 72 72" fill="none" xmlns="http://www.w3.org/2000/svg">
<circle cx="36" cy="36" r="36" fill="white"/>
<path d="M19.4118 34.9412C19.4118 39.1206 22.4141 42.5665 26.3718 43.3171L23.83 40.7753L26.2353 38.3529L33.0588 45.1935L26.2353 52L23.83 49.5947L26.5253 46.8994V46.7971C20.6059 46.0976 16 41.0482 16 34.9412C16 28.3394 21.3394 23 27.9412 23H33.0588V26.4118H27.9412C23.2329 26.4118 19.4118 30.2329 19.4118 34.9412Z" fill="black"/>
<path d="M51.8236 34.9412V23H36.4707V34.9412H51.8236ZM48.4119 31.5294H39.8825V26.4118H48.4119V31.5294Z" fill="black"/>
<path d="M51.8236 38.3535H36.4707V50.2947H51.8236V38.3535Z" fill="black"/>
</svg>
