<svg width="72" height="72" viewBox="0 0 72 72" fill="none" xmlns="http://www.w3.org/2000/svg">
<circle cx="36" cy="36" r="36" fill="white"/>
<path d="M40.3182 22.8636C40.3182 25.1818 38 32.1364 38 32.1364H34.9091C34.9091 32.1364 32.5909 25.1818 32.5909 22.8636C32.5909 20.7309 34.3218 19 36.4545 19C38.5873 19 40.3182 20.7309 40.3182 22.8636ZM36.4545 34.4545C34.7545 34.4545 33.3636 35.8455 33.3636 37.5455C33.3636 39.2455 34.7545 40.6364 36.4545 40.6364C38.1545 40.6364 39.5455 39.2455 39.5455 37.5455C39.5455 35.8455 38.1545 34.4545 36.4545 34.4545ZM42.76 26.8973C43.0382 25.7382 43.27 24.6255 43.3627 23.7136C48.4318 26.2482 51.9091 31.4873 51.9091 37.5455C51.9091 46.0764 44.9855 53 36.4545 53C27.9236 53 21 46.0764 21 37.5455C21 31.4873 24.4773 26.2482 29.5464 23.7136C29.6545 24.6255 29.8709 25.7536 30.1491 26.8973C26.5327 29.0609 24.0909 33.0173 24.0909 37.5455C24.0909 44.3764 29.6236 49.9091 36.4545 49.9091C43.2855 49.9091 48.8182 44.3764 48.8182 37.5455C48.8182 33.0173 46.3764 29.0609 42.76 26.8973ZM45.7273 37.5455C45.7273 42.6609 41.57 46.8182 36.4545 46.8182C31.3391 46.8182 27.1818 42.6609 27.1818 37.5455C27.1818 34.4545 28.6964 31.7191 31.0145 30.0345C31.37 31.2864 32.0191 33.2336 32.0191 33.2336C30.9373 34.3464 30.2727 35.8764 30.2727 37.5455C30.2727 40.9609 33.0391 43.7273 36.4545 43.7273C39.87 43.7273 42.6364 40.9609 42.6364 37.5455C42.6364 35.8764 41.9718 34.3464 40.89 33.2336C40.89 33.2336 41.5236 31.3482 41.8945 30.0345C44.2127 31.7191 45.7273 34.4545 45.7273 37.5455Z" fill="black"/>
</svg>
