<svg width="72" height="72" viewBox="0 0 72 72" fill="none" xmlns="http://www.w3.org/2000/svg">
<circle cx="36" cy="36" r="36" fill="white"/>
<path d="M45.6667 23.3333L43.3333 21L41 23.3333L38.6667 21L36.3333 23.3333L34 21L31.6667 23.3333L29.3333 21L27 23.3333L24.6667 21V42.7778H20V47.4444C20 50.0267 22.0844 52.1111 24.6667 52.1111H43.3333C45.9156 52.1111 48 50.0267 48 47.4444V21L45.6667 23.3333ZM38.6667 49H24.6667C23.8111 49 23.1111 48.3 23.1111 47.4444V45.8889H38.6667V49ZM44.8889 47.4444C44.8889 48.3 44.1889 49 43.3333 49C42.4778 49 41.7778 48.3 41.7778 47.4444V42.7778H27.7778V25.6667H44.8889V47.4444Z" fill="black"/>
<path d="M38.6673 28.7773H29.334V31.8885H38.6673V28.7773Z" fill="black"/>
<path d="M43.3338 28.7773H40.2227V31.8885H43.3338V28.7773Z" fill="black"/>
<path d="M38.6673 33.4453H29.334V36.5564H38.6673V33.4453Z" fill="black"/>
<path d="M43.3338 33.4453H40.2227V36.5564H43.3338V33.4453Z" fill="black"/>
</svg>
