<svg width="72" height="72" viewBox="0 0 72 72" fill="none" xmlns="http://www.w3.org/2000/svg">
<circle cx="36" cy="36" r="36" fill="white"/>
<path d="M44.6818 30.1364L51.0455 36.5L44.6818 42.8636L42.4386 40.6205L44.9523 38.0909H36.7273V34.9091H44.9523L42.4227 32.3795L44.6818 30.1364ZM27.1818 19.0159L43.0909 19C44.8409 19 46.2727 20.4318 46.2727 22.1818V28.5455H43.0909V26.9545H27.1818V46.0455H43.0909V44.4545H46.2727V50.8182C46.2727 52.5682 44.8409 54 43.0909 54H27.1818C25.4318 54 24 52.5682 24 50.8182V22.1818C24 20.4318 25.4318 19.0159 27.1818 19.0159ZM27.1818 50.8182H43.0909V49.2273H27.1818V50.8182ZM27.1818 23.7727H43.0909V22.1818H27.1818V23.7727Z" fill="black"/>
</svg>
