<svg width="72" height="72" viewBox="0 0 72 72" fill="none" xmlns="http://www.w3.org/2000/svg">
<circle cx="36" cy="36" r="36" fill="white"/>
<path d="M39.875 19H26.375C24.5187 19 23.0169 20.53 23.0169 22.4L23 49.6C23 51.47 24.5019 53 26.3581 53H46.625C48.4813 53 50 51.47 50 49.6V29.2L39.875 19ZM26.375 22.4H38.1875L46.625 30.9V45.486L43.52 42.358C45.68 39.06 45.3256 34.589 42.44 31.682C40.8031 30.033 38.66 29.2 36.5 29.2C34.34 29.2 32.1969 30.033 30.5431 31.682C27.2525 34.997 27.2525 40.369 30.5431 43.667C32.18 45.316 34.34 46.149 36.5 46.149C38.12 46.149 39.74 45.673 41.1406 44.738L45.95 49.6H26.375V22.4ZM40.0606 41.27C39.1156 42.222 37.85 42.766 36.5 42.766C35.15 42.766 33.8844 42.239 32.9394 41.27C31.9944 40.318 31.4544 39.043 31.4544 37.683C31.4544 36.323 31.9775 35.048 32.9394 34.096C33.8844 33.127 35.15 32.6 36.5 32.6C37.85 32.6 39.1156 33.127 40.0606 34.096C41.0056 35.048 41.5456 36.323 41.5456 37.683C41.5456 39.043 41.0225 40.318 40.0606 41.27Z" fill="black"/>
</svg>
