<svg width="72" height="72" viewBox="0 0 72 72" fill="none" xmlns="http://www.w3.org/2000/svg">
<circle cx="36" cy="36" r="36" fill="#EFEFEF"/>
<path d="M49.2222 18H22.7778C20.7 18 19 19.7 19 21.7778V48.2222C19 50.3 20.7 52 22.7778 52H49.2222C51.3 52 53 50.3 53 48.2222V21.7778C53 19.7 51.3 18 49.2222 18ZM49.2222 48.2222H22.7778V21.7778H49.2222V48.2222Z" fill="black"/>
<path d="M34.5831 26.9141H25.1387V29.7474H34.5831V26.9141Z" fill="black"/>
<path d="M47.3331 42.084H37.8887V44.9173H47.3331V42.084Z" fill="black"/>
<path d="M47.3331 37.3613H37.8887V40.1947H47.3331V37.3613Z" fill="black"/>
<path d="M28.4438 46.3342H31.2771V42.5564H35.0549V39.7231H31.2771V35.9453H28.4438V39.7231H24.666V42.5564H28.4438V46.3342Z" fill="black"/>
<path d="M39.9475 33.016L42.6109 30.3527L45.2742 33.016L47.2764 31.0138L44.6131 28.3316L47.2764 25.6682L45.2742 23.666L42.6109 26.3293L39.9475 23.666L37.9453 25.6682L40.6086 28.3316L37.9453 31.0138L39.9475 33.016Z" fill="black"/>
</svg>
