<svg width="46" height="46" viewBox="0 0 46 46" fill="none" xmlns="http://www.w3.org/2000/svg">
<circle cx="23" cy="23" r="23" fill="#295376"/>
<rect width="20" height="20" transform="translate(13 13)" fill="#295376"/>
<path d="M30.5 21.125H24.875V15.5C24.875 14.8098 24.3152 14.25 23.625 14.25H22.375C21.6848 14.25 21.125 14.8098 21.125 15.5V21.125H15.5C14.8098 21.125 14.25 21.6848 14.25 22.375V23.625C14.25 24.3152 14.8098 24.875 15.5 24.875H21.125V30.5C21.125 31.1902 21.6848 31.75 22.375 31.75H23.625C24.3152 31.75 24.875 31.1902 24.875 30.5V24.875H30.5C31.1902 24.875 31.75 24.3152 31.75 23.625V22.375C31.75 21.6848 31.1902 21.125 30.5 21.125Z" fill="white"/>
</svg>
