<svg width="72" height="72" viewBox="0 0 72 72" fill="none" xmlns="http://www.w3.org/2000/svg">
<circle cx="36" cy="36" r="36" fill="white"/>
<path d="M32.4553 37.5263C36.1723 37.5263 39.183 34.5116 39.183 30.7895C39.183 27.0674 36.1723 24.0526 32.4553 24.0526C28.7383 24.0526 25.7277 27.0674 25.7277 30.7895C25.7277 34.5116 28.7383 37.5263 32.4553 37.5263ZM32.4553 27.4211C34.3054 27.4211 35.8191 28.9368 35.8191 30.7895C35.8191 32.6421 34.3054 34.1579 32.4553 34.1579C30.6052 34.1579 29.0915 32.6421 29.0915 30.7895C29.0915 28.9368 30.6052 27.4211 32.4553 27.4211ZM32.4553 40.8947C27.9646 40.8947 19 43.1516 19 47.6316V51H45.9106V47.6316C45.9106 43.1516 36.946 40.8947 32.4553 40.8947ZM22.3638 47.6316C22.7338 46.4189 27.931 44.2632 32.4553 44.2632C36.9965 44.2632 42.2104 46.4358 42.5468 47.6316H22.3638ZM42.6813 27.5053C44.0942 29.4926 44.0942 32.0695 42.6813 34.0568L45.507 36.9032C48.9044 33.5011 48.9044 28.3642 45.507 24.6589L42.6813 27.5053ZM51.0741 19L48.3326 21.7453C52.9915 26.8316 52.9915 34.4779 48.3326 39.8337L51.0741 42.5789C57.6336 36.0274 57.6504 25.8211 51.0741 19Z" fill="black"/>
</svg>
