<svg width="72" height="72" viewBox="0 0 72 72" fill="none" xmlns="http://www.w3.org/2000/svg">
<circle cx="36" cy="36" r="36" fill="white"/>
<path d="M49.2222 18H22.7778C20.7 18 19 19.7 19 21.7778V48.2222C19 50.3 20.7 52 22.7778 52H49.2222C51.3 52 53 50.3 53 48.2222V21.7778C53 19.7 51.3 18 49.2222 18ZM49.2222 48.2222H22.7778V21.7778H49.2222V48.2222Z" fill="black"/>
<path d="M34.5831 26.915H25.1387V29.7484H34.5831V26.915Z" fill="black"/>
<path d="M47.3331 42.083H37.8887V44.9163H47.3331V42.083Z" fill="black"/>
<path d="M47.3331 37.3613H37.8887V40.1947H47.3331V37.3613Z" fill="black"/>
<path d="M28.4438 46.3332H31.2771V42.5554H35.0549V39.7221H31.2771V35.9443H28.4438V39.7221H24.666V42.5554H28.4438V46.3332Z" fill="black"/>
<path d="M39.9475 33.017L42.6109 30.3537L45.2742 33.017L47.2764 31.0148L44.6131 28.3325L47.2764 25.6692L45.2742 23.667L42.6109 26.3303L39.9475 23.667L37.9453 25.6692L40.6086 28.3325L37.9453 31.0148L39.9475 33.017Z" fill="black"/>
</svg>
