<svg width="72" height="72" viewBox="0 0 72 72" fill="none" xmlns="http://www.w3.org/2000/svg">
<circle cx="36" cy="36" r="36" fill="white"/>
<path d="M36 19C26.616 19 19 26.616 19 36C19 45.384 26.616 53 36 53C45.384 53 53 45.384 53 36C53 26.616 45.384 19 36 19ZM36 49.6C28.503 49.6 22.4 43.497 22.4 36C22.4 28.503 28.503 22.4 36 22.4C43.497 22.4 49.6 28.503 49.6 36C49.6 43.497 43.497 49.6 36 49.6ZM37.513 34.47C34.487 33.467 33.025 32.838 33.025 31.24C33.025 29.506 34.912 28.877 36.102 28.877C38.329 28.877 39.145 30.56 39.332 31.155L42.018 30.016C41.763 29.268 40.624 26.769 37.496 26.225V24.1H34.521V26.242C30.101 27.194 30.067 31.087 30.067 31.274C30.067 35.133 33.892 36.221 35.762 36.901C38.448 37.853 39.638 38.72 39.638 40.352C39.638 42.273 37.853 43.089 36.272 43.089C33.178 43.089 32.294 39.91 32.192 39.536L29.37 40.675C30.441 44.398 33.246 45.401 34.504 45.707V47.9H37.479V45.792C38.363 45.639 42.613 44.789 42.613 40.318C42.63 37.955 41.593 35.881 37.513 34.47Z" fill="black"/>
</svg>
