<svg width="72" height="72" viewBox="0 0 72 72" fill="none" xmlns="http://www.w3.org/2000/svg">
<circle cx="36" cy="36" r="36" fill="white"/>
<path d="M49.3333 22.55L46.7576 20L44.1818 22.55L41.6061 20L39.0303 22.55L36.4545 20L33.8788 22.55L31.303 20L28.7273 22.55L26.1515 20L23.5758 22.55L21 20V54L23.5758 51.45L26.1515 54L28.7273 51.45L31.303 54L33.8788 51.45L36.4545 54L39.0303 51.45L41.6061 54L44.1818 51.45L46.7576 54L49.3333 51.45L51.9091 54V20L49.3333 22.55ZM48.4747 49.053H24.4343V24.947H48.4747V49.053ZM26.1515 42.1H46.7576V45.5H26.1515V42.1ZM26.1515 35.3H46.7576V38.7H26.1515V35.3ZM26.1515 28.5H46.7576V31.9H26.1515V28.5Z" fill="black"/>
</svg>
