<svg width="72" height="72" viewBox="0 0 72 72" fill="none" xmlns="http://www.w3.org/2000/svg">
<circle cx="36" cy="36" r="36" fill="white"/>
<path d="M35.1111 28.4444V37.8889L43.1389 42.6489L44.5933 40.2311L37.9444 36.2833V28.4444H35.1111ZM54 32.2222V19L49.0133 23.9867C45.9533 20.9078 41.7033 19 37 19C27.6122 19 20 26.6122 20 36C20 45.3878 27.6122 53 37 53C46.3878 53 54 45.3878 54 36H50.2222C50.2222 43.2911 44.2911 49.2222 37 49.2222C29.7089 49.2222 23.7778 43.2911 23.7778 36C23.7778 28.7089 29.7089 22.7778 37 22.7778C40.6456 22.7778 43.9511 24.27 46.35 26.65L40.7778 32.2222H54Z" fill="black"/>
</svg>
