<svg width="18" height="19" viewBox="0 0 18 19" fill="none" xmlns="http://www.w3.org/2000/svg">
<path d="M16.5 7.625H10.875V2C10.875 1.30977 10.3152 0.75 9.625 0.75H8.375C7.68477 0.75 7.125 1.30977 7.125 2V7.625H1.5C0.809766 7.625 0.25 8.18477 0.25 8.875V10.125C0.25 10.8152 0.809766 11.375 1.5 11.375H7.125V17C7.125 17.6902 7.68477 18.25 8.375 18.25H9.625C10.3152 18.25 10.875 17.6902 10.875 17V11.375H16.5C17.1902 11.375 17.75 10.8152 17.75 10.125V8.875C17.75 8.18477 17.1902 7.625 16.5 7.625Z" fill="#2572B4"/>
</svg>
