<?xml version="1.0"?>
<svg xmlns="http://www.w3.org/2000/svg" width="50" height="50" viewBox="0 0 50 50">
    <path d="M 29 0.8125 C 9.757 0.8125 0 16.344 0 47 C 0 47.294 0.11975 47.56 0.34375 47.75 C 0.52675 47.904 0.766 48 1 48 C 1.056 48 1.10025 48.009 1.15625 48 C 1.21425 47.991 7.11 47 18 47 C 18.011 47 18.02125 47 18.03125 47 C 19.98325 48.824 22.28 50 25 50 C 27.734 50 30.235 48.82475 32.375 46.96875 C 32.418 46.97375 32.455 47 32.5 47 C 43.162 47 48.7585 47.95975 48.8125 47.96875 C 48.8715 47.97975 48.941 48 49 48 C 49.232 48 49.47525 47.93325 49.65625 47.78125 C 49.88325 47.59025 50 47.296 50 47 C 50 41.417 49.45575 37.71 48.96875 35.5 C 47.90875 36.437 46.521 37 45 37 L 44.90625 37 C 44.41825 40.387 41.519 43 38 43 L 33.28125 43 C 32.81225 43.619 32.40875 44.0985 32.09375 44.4375 C 32.03775 44.4975 31.96325 44.566 31.90625 44.625 C 31.64625 44.895 31.5 45.03125 31.5 45.03125 C 29.597 46.84225 27.372 48 25 48 C 20.2 48 16.1125 43.1875 12.3125 33.1875 C 12.2125 32.7875 11.8 32.59375 11.5 32.59375 C 10.1 32.49475 9 31.3125 9 29.8125 C 9 29.2125 9.1 28.39475 9.5 28.09375 C 9.9 27.79375 10.6875 27.90625 10.6875 27.90625 L 11 27.90625 C 19.3 27.90625 27.2 19.70625 30 14.40625 C 33 20.80625 37.9875 26.7 38.1875 27 C 38.3875 27.2 38.7 27.40625 39 27.40625 C 39 27.40625 40.423 27.40675 41 28.59375 L 41 24 C 41 22 43 22 43 22 L 45 22 C 45.675 22 46.3315 22.1065 46.9375 22.3125 C 46.2015 11.8705 39.663 4.42325 30.75 4.03125 L 29.96875 1.5 C 29.83875 1.083 29.438 0.8125 29 0.8125 z M 33.28125 43 C 33.70225 42.444 34.168 41.77 34.625 41 L 29.8125 41 C 29.396337 39.842279 28.299079 39 27 39 L 25 39 C 23.346 39 22 40.346 22 42 C 22 43.654 23.346 45 25 45 L 27 45 C 28.299079 45 29.396337 44.157721 29.8125 43 L 33.28125 43 z M 34.625 41 L 38 41 C 40.414 41 42.44325 39.279 42.90625 37 C 42.90625 37 41 37 41 35 L 41 31 C 41 32.3 38.5 32.59375 38.5 32.59375 C 38.1 32.59375 37.69375 33.00525 37.59375 33.40625 C 37.24775 34.99525 36.757 36.53825 36.125 38.03125 C 36.037 38.20825 35.94275 38.395 35.84375 38.625 C 35.46175 39.506 35.045 40.291 34.625 41 z M 43 24 L 43 35 L 45 35 C 47.2 35 49 33.2 49 31 L 49 28 C 49 25.8 47.2 24 45 24 L 43 24 z"/>
</svg>
