<?xml version="1.0"?>
<svg xmlns="http://www.w3.org/2000/svg" width="50" height="50" viewBox="0 0 50 50">
    <path d="M 25 0 C 21.691 0 19 2.691 19 6 C 19 9.309 21.691 12 25 12 C 28.309 12 31 9.309 31 6 C 31 2.691 28.309 0 25 0 z M 22 13 C 18.14 13 15 16.14 15 20 L 15 22 L 35 22 L 35 20 C 35 16.14 31.859 13 28 13 L 22 13 z M 42 19 L 42 20 L 43 20 L 44 20 L 44 19 L 42 19 z M 43 20 C 40.587625 20 38.560768 21.723701 38.09375 24 L 1 24 C 0.448 24 0 24.448 0 25 L 0 29 C 0 29.553 0.448 30 1 30 L 49 30 C 49.553 30 50 29.553 50 29 L 50 25 C 50 24.448 49.553 24 49 24 L 47.90625 24 C 47.439232 21.723701 45.412375 20 43 20 z M 43 22 C 44.299079 22 45.396337 22.842279 45.8125 24 L 40.1875 24 C 40.603663 22.842279 41.700921 22 43 22 z M 2 32 L 2 49 C 2 49.553 2.448 50 3 50 L 47 50 C 47.553 50 48 49.553 48 49 L 48 32 L 2 32 z"/>
</svg>
